<?xml version="1.0" encoding="UTF-8" standalone="no"?>
<!DOCTYPE svg PUBLIC "-//W3C//DTD SVG 1.1//EN"
 "http://www.w3.org/Graphics/SVG/1.1/DTD/svg11.dtd">
<!-- Generated by graphviz version 2.42.3 (20191010.1750)
 -->
<!-- Title: %3 Pages: 1 -->
<svg width="457pt" height="255pt"
 viewBox="0.00 0.00 457.00 255.00" xmlns="http://www.w3.org/2000/svg" xmlns:xlink="http://www.w3.org/1999/xlink">
<g id="graph0" class="graph" transform="scale(1 1) rotate(0) translate(4 251)">
<title>%3</title>
<polygon fill="white" stroke="transparent" points="-4,4 -4,-251 453,-251 453,4 -4,4"/>
<g id="clust1" class="cluster">
<title>cluster_0</title>
<polygon fill="none" stroke="black" points="8,-8 8,-239 441,-239 441,-8 8,-8"/>
<text text-anchor="middle" x="224.5" y="-223.8" font-family="Times,serif" font-size="14.00">vps</text>
</g>
<!-- process_0_23167 -->
<g id="node1" class="node">
<title>process_0_23167</title>
<polygon fill="gray" stroke="transparent" points="26,-184 26,-202 92,-202 92,-184 26,-184"/>
<text text-anchor="start" x="46.17" y="-189.8" font-family="Times,serif" font-weight="bold" font-size="14.00">ruby</text>
<polygon fill="lightgray" stroke="transparent" points="26,-165 26,-183 92,-183 92,-165 26,-165"/>
<text text-anchor="start" x="30.81" y="-169.8" font-family="Times,serif" font-size="14.00">pid 23167</text>
<text text-anchor="start" x="34.31" y="-150.8" font-family="Times,serif" font-size="14.00">uid 1000</text>
<text text-anchor="start" x="27.89" y="-132.8" font-family="Times,serif" font-weight="bold" font-size="14.00" fill="red">unconfined</text>
<polygon fill="none" stroke="black" points="24,-125.5 24,-204.5 94,-204.5 94,-125.5 24,-125.5"/>
</g>
<!-- process_0_16946 -->
<g id="node2" class="node">
<title>process_0_16946</title>
<polygon fill="gray" stroke="transparent" points="357,-184 357,-202 423,-202 423,-184 357,-184"/>
<text text-anchor="start" x="366.67" y="-189.8" font-family="Times,serif" font-weight="bold" font-size="14.00">postgres</text>
<polygon fill="lightgray" stroke="transparent" points="357,-165 357,-183 423,-183 423,-165 357,-165"/>
<text text-anchor="start" x="361.81" y="-169.8" font-family="Times,serif" font-size="14.00">pid 16946</text>
<text text-anchor="start" x="365.31" y="-150.8" font-family="Times,serif" font-size="14.00">uid 1000</text>
<text text-anchor="start" x="358.89" y="-132.8" font-family="Times,serif" font-weight="bold" font-size="14.00" fill="red">unconfined</text>
<polygon fill="none" stroke="black" points="355,-125.5 355,-204.5 425,-204.5 425,-125.5 355,-125.5"/>
</g>
<!-- process_0_23167&#45;&#45;process_0_16946 -->
<g id="edge1" class="edge">
<title>process_0_23167&#45;&#45;process_0_16946</title>
<path fill="none" stroke="black" d="M102,-165C165.14,-165 283.84,-165 346.99,-165"/>
<polygon fill="lightgray" stroke="transparent" points="120,-165 120,-204 329,-204 329,-165 120,-165"/>
<text text-anchor="start" x="309.4" y="-190.3" font-family="Times,serif" font-weight="bold" font-size="14.00">tcp</text>
<text text-anchor="start" x="123.38" y="-170.3" font-family="Times,serif" font-size="14.00">127.0.0.1:47338 &lt;&#45;&gt; 127.0.0.1:5433</text>
</g>
<!-- process_0_2379 -->
<g id="node3" class="node">
<title>process_0_2379</title>
<polygon fill="gray" stroke="transparent" points="26,-79 26,-97 92,-97 92,-79 26,-79"/>
<text text-anchor="start" x="52.39" y="-84.8" font-family="Times,serif" font-weight="bold" font-size="14.00">nc</text>
<polygon fill="lightgray" stroke="transparent" points="26,-60 26,-78 92,-78 92,-60 26,-60"/>
<text text-anchor="start" x="34.31" y="-64.8" font-family="Times,serif" font-size="14.00">pid 2379</text>
<text text-anchor="start" x="44.81" y="-46.8" font-family="Times,serif" font-weight="bold" font-size="14.00" fill="red">uid 0</text>
<text text-anchor="start" x="27.89" y="-27.8" font-family="Times,serif" font-weight="bold" font-size="14.00" fill="red">unconfined</text>
<polygon fill="none" stroke="black" points="24,-20.5 24,-99.5 94,-99.5 94,-20.5 24,-20.5"/>
</g>
<!-- process_0_19476 -->
<g id="node4" class="node">
<title>process_0_19476</title>
<polygon fill="gray" stroke="transparent" points="357,-79 357,-97 423,-97 423,-79 357,-79"/>
<text text-anchor="start" x="383.39" y="-84.8" font-family="Times,serif" font-weight="bold" font-size="14.00">nc</text>
<polygon fill="lightgray" stroke="transparent" points="357,-60 357,-78 423,-78 423,-60 357,-60"/>
<text text-anchor="start" x="361.81" y="-64.8" font-family="Times,serif" font-size="14.00">pid 19476</text>
<text text-anchor="start" x="375.81" y="-46.8" font-family="Times,serif" font-weight="bold" font-size="14.00" fill="red">uid 0</text>
<text text-anchor="start" x="358.89" y="-27.8" font-family="Times,serif" font-weight="bold" font-size="14.00" fill="red">unconfined</text>
<polygon fill="none" stroke="black" points="355,-20.5 355,-99.5 425,-99.5 425,-20.5 355,-20.5"/>
</g>
<!-- process_0_2379&#45;&#45;process_0_19476 -->
<g id="edge2" class="edge">
<title>process_0_2379&#45;&#45;process_0_19476</title>
<path fill="none" stroke="black" d="M102,-60C165.14,-60 283.84,-60 346.99,-60"/>
<polygon fill="lightgray" stroke="transparent" points="120,-60 120,-99 329,-99 329,-60 120,-60"/>
<text text-anchor="start" x="309.4" y="-85.3" font-family="Times,serif" font-weight="bold" font-size="14.00">tcp</text>
<text text-anchor="start" x="123.38" y="-65.3" font-family="Times,serif" font-size="14.00">127.0.0.1:8888 &lt;&#45;&gt; 127.0.0.1:40670</text>
</g>
</g>
</svg>
